<?xml version="1.0"?><svg xmlns="http://www.w3.org/2000/svg" width="355" height="355"><rect x="0" y="0" width="100%" height="100%" fill="rgb(129, 236, 236)" /><circle cx="0" cy="0" r="59.166666666667" fill="#ddd" style="opacity:0.089333333333333;" /><circle cx="355" cy="0" r="59.166666666667" fill="#ddd" style="opacity:0.089333333333333;" /><circle cx="0" cy="355" r="59.166666666667" fill="#ddd" style="opacity:0.089333333333333;" /><circle cx="355" cy="355" r="59.166666666667" fill="#ddd" style="opacity:0.089333333333333;" /><circle cx="59.166666666667" cy="0" r="59.166666666667" fill="#222" style="opacity:0.080666666666667;" /><circle cx="59.166666666667" cy="355" r="59.166666666667" fill="#222" style="opacity:0.080666666666667;" /><circle cx="118.33333333333" cy="0" r="59.166666666667" fill="#ddd" style="opacity:0.054666666666667;" /><circle cx="118.33333333333" cy="355" r="59.166666666667" fill="#ddd" style="opacity:0.054666666666667;" /><circle cx="177.5" cy="0" r="59.166666666667" fill="#ddd" style="opacity:0.037333333333333;" /><circle cx="177.5" cy="355" r="59.166666666667" fill="#ddd" style="opacity:0.037333333333333;" /><circle cx="236.66666666667" cy="0" r="59.166666666667" fill="#ddd" style="opacity:0.124;" /><circle cx="236.66666666667" cy="355" r="59.166666666667" fill="#ddd" style="opacity:0.124;" /><circle cx="295.83333333333" cy="0" r="59.166666666667" fill="#ddd" style="opacity:0.072;" /><circle cx="295.83333333333" cy="355" r="59.166666666667" fill="#ddd" style="opacity:0.072;" /><circle cx="0" cy="59.166666666667" r="59.166666666667" fill="#ddd" style="opacity:0.072;" /><circle cx="355" cy="59.166666666667" r="59.166666666667" fill="#ddd" style="opacity:0.072;" /><circle cx="59.166666666667" cy="59.166666666667" r="59.166666666667" fill="#ddd" style="opacity:0.089333333333333;" /><circle cx="118.33333333333" cy="59.166666666667" r="59.166666666667" fill="#ddd" style="opacity:0.14133333333333;" /><circle cx="177.5" cy="59.166666666667" r="59.166666666667" fill="#ddd" style="opacity:0.14133333333333;" /><circle cx="236.66666666667" cy="59.166666666667" r="59.166666666667" fill="#222" style="opacity:0.063333333333333;" /><circle cx="295.83333333333" cy="59.166666666667" r="59.166666666667" fill="#ddd" style="opacity:0.037333333333333;" /><circle cx="0" cy="118.33333333333" r="59.166666666667" fill="#222" style="opacity:0.15;" /><circle cx="355" cy="118.33333333333" r="59.166666666667" fill="#222" style="opacity:0.15;" /><circle cx="59.166666666667" cy="118.33333333333" r="59.166666666667" fill="#222" style="opacity:0.080666666666667;" /><circle cx="118.33333333333" cy="118.33333333333" r="59.166666666667" fill="#ddd" style="opacity:0.124;" /><circle cx="177.5" cy="118.33333333333" r="59.166666666667" fill="#222" style="opacity:0.11533333333333;" /><circle cx="236.66666666667" cy="118.33333333333" r="59.166666666667" fill="#ddd" style="opacity:0.14133333333333;" /><circle cx="295.83333333333" cy="118.33333333333" r="59.166666666667" fill="#222" style="opacity:0.063333333333333;" /><circle cx="0" cy="177.5" r="59.166666666667" fill="#222" style="opacity:0.028666666666667;" /><circle cx="355" cy="177.5" r="59.166666666667" fill="#222" style="opacity:0.028666666666667;" /><circle cx="59.166666666667" cy="177.5" r="59.166666666667" fill="#ddd" style="opacity:0.089333333333333;" /><circle cx="118.33333333333" cy="177.5" r="59.166666666667" fill="#222" style="opacity:0.028666666666667;" /><circle cx="177.5" cy="177.5" r="59.166666666667" fill="#222" style="opacity:0.13266666666667;" /><circle cx="236.66666666667" cy="177.5" r="59.166666666667" fill="#ddd" style="opacity:0.072;" /><circle cx="295.83333333333" cy="177.5" r="59.166666666667" fill="#ddd" style="opacity:0.02;" /><circle cx="0" cy="236.66666666667" r="59.166666666667" fill="#222" style="opacity:0.098;" /><circle cx="355" cy="236.66666666667" r="59.166666666667" fill="#222" style="opacity:0.098;" /><circle cx="59.166666666667" cy="236.66666666667" r="59.166666666667" fill="#222" style="opacity:0.15;" /><circle cx="118.33333333333" cy="236.66666666667" r="59.166666666667" fill="#222" style="opacity:0.15;" /><circle cx="177.5" cy="236.66666666667" r="59.166666666667" fill="#ddd" style="opacity:0.089333333333333;" /><circle cx="236.66666666667" cy="236.66666666667" r="59.166666666667" fill="#ddd" style="opacity:0.02;" /><circle cx="295.83333333333" cy="236.66666666667" r="59.166666666667" fill="#ddd" style="opacity:0.02;" /><circle cx="0" cy="295.83333333333" r="59.166666666667" fill="#222" style="opacity:0.15;" /><circle cx="355" cy="295.83333333333" r="59.166666666667" fill="#222" style="opacity:0.15;" /><circle cx="59.166666666667" cy="295.83333333333" r="59.166666666667" fill="#222" style="opacity:0.046;" /><circle cx="118.33333333333" cy="295.83333333333" r="59.166666666667" fill="#ddd" style="opacity:0.10666666666667;" /><circle cx="177.5" cy="295.83333333333" r="59.166666666667" fill="#222" style="opacity:0.046;" /><circle cx="236.66666666667" cy="295.83333333333" r="59.166666666667" fill="#222" style="opacity:0.080666666666667;" /><circle cx="295.83333333333" cy="295.83333333333" r="59.166666666667" fill="#ddd" style="opacity:0.054666666666667;" /></svg>